<svg width="353" height="296" viewBox="0 0 353 296" fill="none" xmlns="http://www.w3.org/2000/svg">
<path d="M333.275 0C326.045 36.2351 278.362 108.906 145.465 109.707C81.6337 111.505 8.52078 140.319 0.709914 237.389V273.517C-0.222722 260.536 -0.185294 248.514 0.709914 237.389V0H333.275Z" fill="#36D6AD"/>
<path d="M223.763 122.611L223.786 123.11L223.794 123.11L223.802 123.11L223.763 122.611ZM122.111 131.519L122.018 131.027L122.008 131.029L121.998 131.032L122.111 131.519ZM333.275 0L333.765 0.0978335L333.885 -0.5H333.275V0ZM145.465 109.707L145.462 109.207L145.451 109.208L145.465 109.707ZM0.709914 273.517L0.211199 273.553L1.20991 273.517H0.709914ZM0.709914 0V-0.5H0.209914V0H0.709914ZM223.802 123.11C250.81 121.012 276.4 116.445 298.488 99.2695C320.578 82.0929 339.09 52.3677 352.099 0.120809L351.129 -0.120809C338.148 52.0088 319.72 81.4932 297.874 98.4801C276.027 115.468 250.686 120.018 223.724 122.113L223.802 123.11ZM-0.000112536 295.011C0.568075 268.235 4.30679 233.732 21.3041 202.803C38.2887 171.898 68.5368 144.516 122.224 132.006L121.998 131.032C68.042 143.605 37.5533 171.16 20.4277 202.322C3.31468 233.461 -0.430487 268.156 -0.999887 294.989L-0.000112536 295.011ZM122.204 132.01C158.316 125.206 166.661 125.731 223.786 123.11L223.74 122.112C166.637 124.731 158.215 124.208 122.018 131.027L122.204 132.01ZM332.785 -0.0978335C325.606 35.879 278.148 108.407 145.462 109.207L145.468 110.207C278.575 109.405 326.484 36.5913 333.765 0.0978335L332.785 -0.0978335ZM145.451 109.208C113.475 110.108 79.1299 117.775 51.7881 137.415C24.427 157.068 4.1279 188.678 0.211525 237.349L1.2083 237.429C5.10279 189.03 25.2655 157.697 52.3715 138.227C79.4969 118.743 113.624 111.104 145.479 110.207L145.451 109.208ZM0.211525 237.349C-0.6859 248.502 -0.723081 260.549 0.211199 273.553L1.20863 273.481C0.277637 260.523 0.315312 248.527 1.2083 237.429L0.211525 237.349ZM1.20991 273.517V237.389H0.209914V273.517H1.20991ZM1.20991 237.389V0H0.209914V237.389H1.20991ZM0.709914 0.5H333.275V-0.5H0.709914V0.5Z" fill="#36D6AD"/>
</svg>
